<mxfile host="app.diagrams.net" agent="Mozilla/5.0 (X11; Ubuntu; Linux x86_64; rv:131.0) Gecko/20100101 Firefox/131.0" version="24.8.3">
  <diagram name="Page-1" id="BBhxraIHLNM4_rfPe-V2">
    <mxGraphModel dx="2214" dy="758" grid="1" gridSize="10" guides="1" tooltips="1" connect="1" arrows="1" fold="1" page="1" pageScale="1" pageWidth="850" pageHeight="1100" math="0" shadow="0">
      <root>
        <mxCell id="0" />
        <mxCell id="1" parent="0" />
        <mxCell id="-DbHizO_04Da8UAZBBvK-18" value="" style="rounded=1;whiteSpace=wrap;html=1;dashed=1;" vertex="1" parent="1">
          <mxGeometry x="550" y="190" width="280" height="280" as="geometry" />
        </mxCell>
        <mxCell id="-DbHizO_04Da8UAZBBvK-15" value="" style="rounded=1;whiteSpace=wrap;html=1;dashed=1;" vertex="1" parent="1">
          <mxGeometry x="-60" y="190" width="490" height="280" as="geometry" />
        </mxCell>
        <mxCell id="-DbHizO_04Da8UAZBBvK-2" value="app1" style="rounded=1;whiteSpace=wrap;html=1;fillColor=#ffe6cc;strokeColor=#d79b00;" vertex="1" parent="1">
          <mxGeometry x="-10" y="220" width="120" height="60" as="geometry" />
        </mxCell>
        <mxCell id="-DbHizO_04Da8UAZBBvK-3" value="app2" style="rounded=1;whiteSpace=wrap;html=1;fillColor=#ffe6cc;strokeColor=#d79b00;" vertex="1" parent="1">
          <mxGeometry x="600" y="220" width="120" height="60" as="geometry" />
        </mxCell>
        <mxCell id="-DbHizO_04Da8UAZBBvK-4" value="can0" style="rounded=0;whiteSpace=wrap;html=1;fillColor=#dae8fc;strokeColor=#6c8ebf;" vertex="1" parent="1">
          <mxGeometry x="160" y="380" width="120" height="60" as="geometry" />
        </mxCell>
        <mxCell id="-DbHizO_04Da8UAZBBvK-8" value="can0" style="rounded=0;whiteSpace=wrap;html=1;fillColor=#dae8fc;strokeColor=#6c8ebf;" vertex="1" parent="1">
          <mxGeometry x="600" y="370" width="120" height="60" as="geometry" />
        </mxCell>
        <mxCell id="-DbHizO_04Da8UAZBBvK-9" value="" style="endArrow=none;html=1;rounded=0;dashed=1;" edge="1" parent="1">
          <mxGeometry width="50" height="50" relative="1" as="geometry">
            <mxPoint y="480" as="sourcePoint" />
            <mxPoint x="840" y="480" as="targetPoint" />
          </mxGeometry>
        </mxCell>
        <mxCell id="-DbHizO_04Da8UAZBBvK-11" value="" style="shape=flexArrow;endArrow=classic;startArrow=classic;html=1;rounded=0;fillColor=#d5e8d4;strokeColor=#82b366;" edge="1" parent="1">
          <mxGeometry width="100" height="100" relative="1" as="geometry">
            <mxPoint x="-80" y="560" as="sourcePoint" />
            <mxPoint x="840" y="560" as="targetPoint" />
          </mxGeometry>
        </mxCell>
        <mxCell id="-DbHizO_04Da8UAZBBvK-13" value="CAN Bus" style="text;html=1;align=center;verticalAlign=middle;whiteSpace=wrap;rounded=0;" vertex="1" parent="1">
          <mxGeometry x="410" y="580" width="60" height="30" as="geometry" />
        </mxCell>
        <mxCell id="-DbHizO_04Da8UAZBBvK-14" value="" style="endArrow=none;html=1;rounded=0;dashed=1;" edge="1" parent="1">
          <mxGeometry width="50" height="50" relative="1" as="geometry">
            <mxPoint x="20" y="340" as="sourcePoint" />
            <mxPoint x="370" y="340" as="targetPoint" />
          </mxGeometry>
        </mxCell>
        <mxCell id="-DbHizO_04Da8UAZBBvK-16" value="" style="endArrow=none;html=1;rounded=0;dashed=1;" edge="1" parent="1">
          <mxGeometry width="50" height="50" relative="1" as="geometry">
            <mxPoint x="565" y="340" as="sourcePoint" />
            <mxPoint x="815" y="340" as="targetPoint" />
          </mxGeometry>
        </mxCell>
        <mxCell id="-DbHizO_04Da8UAZBBvK-17" value="Device 1" style="text;html=1;align=center;verticalAlign=middle;whiteSpace=wrap;rounded=0;" vertex="1" parent="1">
          <mxGeometry x="155" y="160" width="60" height="30" as="geometry" />
        </mxCell>
        <mxCell id="-DbHizO_04Da8UAZBBvK-19" value="Device 2" style="text;html=1;align=center;verticalAlign=middle;whiteSpace=wrap;rounded=0;" vertex="1" parent="1">
          <mxGeometry x="640" y="160" width="60" height="30" as="geometry" />
        </mxCell>
        <mxCell id="-DbHizO_04Da8UAZBBvK-20" value="" style="endArrow=classic;startArrow=classic;html=1;rounded=0;entryX=0.5;entryY=1;entryDx=0;entryDy=0;exitX=0.5;exitY=0;exitDx=0;exitDy=0;" edge="1" parent="1" source="-DbHizO_04Da8UAZBBvK-4" target="-DbHizO_04Da8UAZBBvK-2">
          <mxGeometry width="50" height="50" relative="1" as="geometry">
            <mxPoint x="400" y="420" as="sourcePoint" />
            <mxPoint x="450" y="370" as="targetPoint" />
            <Array as="points">
              <mxPoint x="220" y="360" />
              <mxPoint x="110" y="360" />
              <mxPoint x="50" y="360" />
            </Array>
          </mxGeometry>
        </mxCell>
        <mxCell id="-DbHizO_04Da8UAZBBvK-21" value="" style="endArrow=classic;startArrow=classic;html=1;rounded=0;exitX=0.5;exitY=1;exitDx=0;exitDy=0;" edge="1" parent="1" source="-DbHizO_04Da8UAZBBvK-4">
          <mxGeometry width="50" height="50" relative="1" as="geometry">
            <mxPoint x="400" y="420" as="sourcePoint" />
            <mxPoint x="220" y="550" as="targetPoint" />
          </mxGeometry>
        </mxCell>
        <mxCell id="-DbHizO_04Da8UAZBBvK-22" value="" style="endArrow=classic;startArrow=classic;html=1;rounded=0;entryX=0.5;entryY=1;entryDx=0;entryDy=0;exitX=0.5;exitY=0;exitDx=0;exitDy=0;" edge="1" parent="1" source="-DbHizO_04Da8UAZBBvK-8" target="-DbHizO_04Da8UAZBBvK-3">
          <mxGeometry width="50" height="50" relative="1" as="geometry">
            <mxPoint x="400" y="420" as="sourcePoint" />
            <mxPoint x="450" y="370" as="targetPoint" />
          </mxGeometry>
        </mxCell>
        <mxCell id="-DbHizO_04Da8UAZBBvK-23" value="" style="endArrow=classic;startArrow=classic;html=1;rounded=0;entryX=0.5;entryY=1;entryDx=0;entryDy=0;" edge="1" parent="1" target="-DbHizO_04Da8UAZBBvK-8">
          <mxGeometry width="50" height="50" relative="1" as="geometry">
            <mxPoint x="660" y="550" as="sourcePoint" />
            <mxPoint x="450" y="370" as="targetPoint" />
          </mxGeometry>
        </mxCell>
        <mxCell id="-DbHizO_04Da8UAZBBvK-24" value="isotpserver&lt;br&gt;192.168.1.123" style="rounded=1;whiteSpace=wrap;html=1;fillColor=#ffe6cc;strokeColor=#d79b00;" vertex="1" parent="1">
          <mxGeometry x="290" y="220" width="120" height="60" as="geometry" />
        </mxCell>
        <mxCell id="-DbHizO_04Da8UAZBBvK-25" value="" style="endArrow=classic;startArrow=classic;html=1;rounded=0;entryX=0.5;entryY=1;entryDx=0;entryDy=0;exitX=0.5;exitY=0;exitDx=0;exitDy=0;" edge="1" parent="1" source="-DbHizO_04Da8UAZBBvK-4" target="-DbHizO_04Da8UAZBBvK-24">
          <mxGeometry width="50" height="50" relative="1" as="geometry">
            <mxPoint x="400" y="420" as="sourcePoint" />
            <mxPoint x="450" y="370" as="targetPoint" />
            <Array as="points">
              <mxPoint x="220" y="360" />
              <mxPoint x="350" y="360" />
            </Array>
          </mxGeometry>
        </mxCell>
        <mxCell id="-DbHizO_04Da8UAZBBvK-27" value="Device 3&lt;br&gt;192.168.1.72" style="rounded=1;whiteSpace=wrap;html=1;fillColor=#f8cecc;strokeColor=#b85450;" vertex="1" parent="1">
          <mxGeometry x="400" y="10" width="120" height="60" as="geometry" />
        </mxCell>
        <mxCell id="-DbHizO_04Da8UAZBBvK-28" value="nodeId: 123" style="text;html=1;align=center;verticalAlign=middle;whiteSpace=wrap;rounded=0;" vertex="1" parent="1">
          <mxGeometry x="50" y="300" width="80" height="30" as="geometry" />
        </mxCell>
        <mxCell id="-DbHizO_04Da8UAZBBvK-30" value="nodeId: 456" style="text;html=1;align=center;verticalAlign=middle;whiteSpace=wrap;rounded=0;" vertex="1" parent="1">
          <mxGeometry x="660" y="290" width="80" height="30" as="geometry" />
        </mxCell>
        <mxCell id="-DbHizO_04Da8UAZBBvK-31" value="" style="endArrow=classic;startArrow=classic;html=1;rounded=0;entryX=0.5;entryY=1;entryDx=0;entryDy=0;exitX=1;exitY=0.5;exitDx=0;exitDy=0;" edge="1" parent="1" source="-DbHizO_04Da8UAZBBvK-24" target="-DbHizO_04Da8UAZBBvK-27">
          <mxGeometry width="50" height="50" relative="1" as="geometry">
            <mxPoint x="400" y="330" as="sourcePoint" />
            <mxPoint x="450" y="280" as="targetPoint" />
            <Array as="points">
              <mxPoint x="460" y="250" />
            </Array>
          </mxGeometry>
        </mxCell>
        <mxCell id="-DbHizO_04Da8UAZBBvK-32" value="nodeId 456" style="text;html=1;align=center;verticalAlign=middle;whiteSpace=wrap;rounded=0;" vertex="1" parent="1">
          <mxGeometry x="340" y="300" width="90" height="30" as="geometry" />
        </mxCell>
      </root>
    </mxGraphModel>
  </diagram>
</mxfile>
